# Blender v2.83.5 OBJ File: ''
# www.blender.org
mtllib Arrow.mtl
o arrow_body_Cube
v 0.150000 0.500000 -0.050000
v 0.150000 -0.500000 -0.050000
v 0.150000 0.500000 0.050000
v 0.150000 -0.500000 0.050000
v -0.150000 0.500000 -0.050000
v -0.150000 -0.500000 -0.050000
v -0.150000 0.500000 0.050000
v -0.150000 -0.500000 0.050000
vt 0.625000 0.500000
vt 0.875000 0.500000
vt 0.875000 0.750000
vt 0.625000 0.750000
vt 0.375000 0.750000
vt 0.625000 1.000000
vt 0.375000 1.000000
vt 0.375000 0.000000
vt 0.625000 0.000000
vt 0.625000 0.250000
vt 0.375000 0.250000
vt 0.125000 0.500000
vt 0.375000 0.500000
vt 0.125000 0.750000
vn 0.0000 1.0000 0.0000
vn 0.0000 0.0000 1.0000
vn -1.0000 0.0000 0.0000
vn 0.0000 -1.0000 0.0000
vn 1.0000 0.0000 0.0000
vn 0.0000 0.0000 -1.0000
usemtl Material
s off
f 1/1/1 5/2/1 7/3/1 3/4/1
f 4/5/2 3/4/2 7/6/2 8/7/2
f 8/8/3 7/9/3 5/10/3 6/11/3
f 6/12/4 2/13/4 4/5/4 8/14/4
f 2/13/5 1/1/5 3/4/5 4/5/5
f 6/11/6 5/10/6 1/1/6 2/13/6
o arrow_top_Cube.001
v 0.108333 0.897707 -0.050000
v 0.325000 0.502293 -0.050000
v 0.108333 0.897707 0.050000
v 0.325000 0.502293 0.050000
v -0.108333 0.897707 -0.050000
v -0.325000 0.502293 -0.050000
v -0.108333 0.897707 0.050000
v -0.325000 0.502293 0.050000
v 0.000000 1.102293 0.050000
v 0.000000 1.102293 -0.050000
vt 0.625000 0.500000
vt 0.625000 0.250000
vt 0.625000 0.500000
vt 0.375000 0.750000
vt 0.625000 0.750000
vt 0.625000 1.000000
vt 0.375000 1.000000
vt 0.375000 0.000000
vt 0.625000 0.000000
vt 0.375000 0.250000
vt 0.125000 0.500000
vt 0.375000 0.500000
vt 0.125000 0.750000
vt 0.625000 1.000000
vt 0.625000 0.000000
vt 0.625000 0.250000
vt 0.625000 0.750000
vn 0.0000 0.0000 -1.0000
vn 0.0000 0.0000 1.0000
vn -0.8770 0.4805 0.0000
vn 0.0000 -1.0000 0.0000
vn 0.8770 0.4805 0.0000
vn -0.8837 0.4680 0.0000
vn 0.8837 0.4680 0.0000
usemtl Material
s off
f 9/15/7 13/16/7 18/17/7
f 12/18/8 11/19/8 15/20/8 16/21/8
f 16/22/9 15/23/9 13/16/9 14/24/9
f 14/25/10 10/26/10 12/18/10 16/27/10
f 10/26/11 9/15/11 11/19/11 12/18/11
f 14/24/7 13/16/7 9/15/7 10/26/7
f 15/20/8 11/19/8 17/28/8
f 13/16/12 15/23/12 17/29/12 18/30/12
f 11/19/13 9/15/13 18/17/13 17/31/13
